<svg xmlns="http://www.w3.org/2000/svg" version="1.1" xmlns:xlink="http://www.w3.org/1999/xlink" xmlns:svgjs="http://svgjs.com/svgjs" width="1440" height="560" preserveAspectRatio="none" viewBox="0 0 1440 560"><g mask="url(&quot;#SvgjsMask1050&quot;)" fill="none"><rect width="1440" height="560" x="0" y="0" fill="rgba(170, 170, 170, 1)"></rect><path d="M 0,169 C 57.6,150.8 172.8,56.2 288,78 C 403.2,99.8 460.8,282 576,278 C 691.2,274 748.8,64.8 864,58 C 979.2,51.2 1036.8,237.4 1152,244 C 1267.2,250.6 1382.4,121.6 1440,91L1440 560L0 560z" fill="rgba(98, 98, 99, 1)"></path><path d="M 0,479 C 72,440.6 216,290.6 360,287 C 504,283.4 576,460.6 720,461 C 864,461.4 936,272.6 1080,289 C 1224,305.4 1368,492.2 1440,543L1440 560L0 560z" fill="rgba(0, 0, 0, 1)"></path></g><defs><mask id="SvgjsMask1050"><rect width="1440" height="560" fill="#ffffff"></rect></mask></defs></svg>